#!OML:ASF E:\Steps\Project 1\Capture day 1\Session 2\Subject.ASF
:FULLY-SPECIFIED
:DEGREES
221
root 17.0017 16.5944 22.1512 -158.01 -11.8575 171.295
lowerback -17.9469 -1.08739 -7.45951
upperback 3.25555 0.379465 -1.46484
thorax 13.8233 -0.386391 2.6905
lowerneck -1.97446 -0.0968642 -3.2031
upperneck 20.5294 -2.47844 6.15467
head 6.64957 -1.50524 2.30384
rclavicle -9.93923e-015 5.1684e-015
rhumerus -33.0335 -14.903 -78.5072
rradius 35.819
rwrist -1.87322
rhand -10.5077 -412.851
rfingers 7.12502
rthumb -164.505 97.75
lclavicle -9.93923e-015 5.1684e-015
lhumerus -28.2494 5.50441 79.8286
lradius 20.396
lwrist -5.97006
lhand -22.8459 -14.1322
lfingers 7.12502
lthumb 3.59196 15.8173
rfemur -20.8008 4.51202 14.6849
rtibia 10.4652
rfoot -19.5577 -11.7451
rtoes -3.03335
lfemur -75.1441 -5.30881 -15.1847
ltibia 78.1994
lfoot -16.334 6.47549
ltoes -46.5211
222
root 16.9867 16.5933 22.1248 -158.154 -11.7752 171.177
lowerback -17.9629 -1.06726 -7.5359
upperback 3.3638 0.433323 -1.47805
thorax 13.9559 -0.374368 2.73298
lowerneck -2.00972 -0.17587 -3.16202
upperneck 20.5415 -2.58149 6.10113
head 6.66437 -1.55442 2.2728
rclavicle 1.09332e-015 1.03368e-014
rhumerus -32.9911 -14.7704 -78.5329
rradius 35.8873
rwrist -1.90472
rhand -10.8934 -412.338
rfingers 7.12502
rthumb -164.877 98.2349
lclavicle 1.09332e-015 1.03368e-014
lhumerus -28.2001 5.22262 79.917
lradius 20.6766
lwrist -5.65747
lhand -22.6709 -14.0045
lfingers 7.12502
lthumb 3.76092 15.9421
rfemur -20.5224 4.55496 14.4928
rtibia 10.4011
rfoot -19.4052 -12.0036
rtoes -5.523
lfemur -74.7927 -5.25929 -15.0167
ltibia 77.1414
lfoot -15.9923 6.2496
ltoes -46.3901
223
root 16.9682 16.593 22.1206 -158.086 -12.1439 171.054
lowerback -17.7843 -1.17097 -7.44666
upperback 3.32718 0.251419 -1.44262
thorax 13.8239 -0.446253 2.66998
lowerneck -2.01201 -0.169011 -3.03111
upperneck 20.6288 -2.53292 5.79225
head 6.68689 -1.54482 2.154
rclavicle -9.14409e-015 -2.98177e-014
rhumerus -33.0478 -14.5317 -78.5454
rradius 36.0427
rwrist -2.10296
rhand -10.7129 -412.051
rfingers 7.12502
rthumb -164.703 98.5342
lclavicle -9.14409e-015 -2.98177e-014
lhumerus -28.2333 4.68635 80.1585
lradius 21.0384
lwrist -5.1024
lhand -23.1253 -13.2602
lfingers 7.12502
lthumb 3.32208 16.6937
rfemur -20.3338 4.19849 14.4261
rtibia 10.2209
rfoot -19.4575 -12.0618
rtoes -6.30471
lfemur -74.8194 -5.61698 -14.7478
ltibia 76.2088
lfoot -15.4502 5.82755
ltoes -47.5883
224
root 16.9509 16.5948 22.1081 -158.187 -12.3548 171.141
lowerback -17.6316 -1.16385 -7.25288
upperback 3.35116 0.199317 -1.36453
thorax 13.7637 -0.454662 2.63422
lowerneck -1.99782 -0.15043 -2.94015
upperneck 20.7114 -2.49458 5.62275
head 6.70702 -1.53426 2.08643
rclavicle -1.18277e-014 1.90833e-014
rhumerus -33.0947 -14.5854 -78.4711
rradius 36.0857
rwrist -2.19918
rhand -10.484 -412.157
rfingers 7.12502
rthumb -164.482 98.4456
lclavicle -1.18277e-014 1.90833e-014
lhumerus -28.3254 4.48116 80.2888
lradius 21.3482
lwrist -5.02829
lhand -23.6801 -13.6966
lfingers 7.12502
lthumb 2.78628 16.2649
rfemur -20.0754 4.50086 14.4543
rtibia 10.098
rfoot -19.3647 -12.5069
rtoes -5.34796
lfemur -74.6094 -5.68125 -14.3861
ltibia 75.1362
lfoot -14.8945 5.55496
ltoes -48.8305
225
root 16.9412 16.5949 22.1026 -157.997 -12.4478 171.074
lowerback -17.6712 -1.16608 -7.28324
upperback 3.29395 0.201815 -1.34641
thorax 13.72 -0.454144 2.67333
lowerneck -1.95793 -0.151981 -2.99257
upperneck 20.7238 -2.52527 5.75236
head 6.7069 -1.54592 2.13547
rclavicle 3.97569e-015 9.54166e-015
rhumerus -33.1125 -14.849 -78.3654
rradius 36.0048
rwrist -1.99308
rhand -10.6834 -412.444
rfingers 7.12502
rthumb -164.675 98.1436
lclavicle 3.97569e-015 9.54166e-015
lhumerus -28.3581 4.42056 80.3113
lradius 21.7371
lwrist -4.6724
lhand -23.0365 -13.6867
lfingers 7.12502
lthumb 3.40781 16.2658
rfemur -20.4219 5.11761 14.2752
rtibia 10.5303
rfoot -19.7275 -13.2032
rtoes -5.87436
lfemur -74.7034 -5.69304 -14.1203
ltibia 74.2102
lfoot -14.55 4.98195
ltoes -48.3845
226
root 16.9261 16.6004 22.0787 -158.115 -12.3125 170.99
lowerback -17.6697 -1.0834 -7.31293
upperback 3.35443 0.327152 -1.39507
thorax 13.7776 -0.400322 2.67079
lowerneck -1.92005 -0.114499 -3.01552
upperneck 20.6775 -2.49042 5.87658
head 6.68476 -1.5218 2.18192
rclavicle -3.57812e-015 2.98177e-014
rhumerus -33.0688 -14.9932 -78.3606
rradius 35.9228
rwrist -1.86693
rhand -10.8899 -412.728
rfingers 7.12502
rthumb -164.873 97.8448
lclavicle -3.57812e-015 2.98177e-014
lhumerus -28.3227 4.25353 80.3169
lradius 22.0856
lwrist -4.40673
lhand -22.7002 -13.4776
lfingers 7.12502
lthumb 3.73263 16.4694
rfemur -20.477 5.64807 14.0394
rtibia 11.0249
rfoot -20.0803 -13.6584
rtoes -5.6396
lfemur -74.2764 -5.62087 -13.9354
ltibia 73.1503
lfoot -14.3486 4.55283
ltoes -47.515
227
root 16.8916 16.6046 22.0599 -158.142 -12.4897 170.834
lowerback -17.6651 -1.09841 -7.11704
upperback 3.40268 0.270623 -1.44479
thorax 13.8362 -0.41066 2.48669
lowerneck -1.87219 -0.120069 -3.05906
upperneck 20.6384 -2.50528 5.94377
head 6.66535 -1.528 2.21024
rclavicle 2.48481e-014 -5.28767e-014
rhumerus -32.9602 -14.9422 -78.3449
rradius 35.8419
rwrist -1.949
rhand -11.2621 -411.511
rfingers 7.12502
rthumb -165.232 99.0351
lclavicle 2.48481e-014 -5.28767e-014
lhumerus -28.3376 3.97605 80.4146
lradius 22.4287
lwrist -4.26685
lhand -23.2401 -14.2556
lfingers 7.12502
lthumb 3.21124 15.6999
rfemur -20.1962 4.92647 13.8719
rtibia 10.9434
rfoot -20.136 -13.2879
rtoes -5.78619
lfemur -73.9485 -5.99508 -13.8855
ltibia 72.082
lfoot -14.0242 4.39184
ltoes -48.7692
228
root 16.871 16.6036 22.0404 -158.158 -12.6095 170.696
lowerback -17.6976 -1.16504 -7.28309
upperback 3.48199 0.215667 -1.32611
thorax 13.9567 -0.459856 2.69757
lowerneck -1.8409 -0.300297 -3.24147
upperneck 20.596 -2.74152 5.96471
head 6.65999 -1.65315 2.2331
rclavicle -3.27995e-014 -1.70955e-014
rhumerus -32.8445 -14.7785 -78.1542
rradius 35.84
rwrist -2.05975
rhand -10.9962 -411.67
rfingers 7.12502
rthumb -164.976 98.8951
lclavicle -3.27995e-014 -1.70955e-014
lhumerus -28.3118 3.92465 80.6589
lradius 22.8504
lwrist -3.7419
lhand -22.8237 -14.4814
lfingers 7.12502
lthumb 3.61335 15.4677
rfemur -19.8972 4.6995 13.7405
rtibia 10.7621
rfoot -20.0243 -13.4317
rtoes -7.19053
lfemur -73.6861 -6.17982 -13.8116
ltibia 71.1821
lfoot -13.7917 3.94602
ltoes -49.9264
229
root 16.8528 16.6077 22.0157 -158.398 -12.6501 170.649
lowerback -17.6 -1.14899 -7.4496
upperback 3.60983 0.261417 -1.19831
thorax 14.0459 -0.463715 2.94871
lowerneck -1.84249 -0.47104 -3.21683
upperneck 20.637 -2.96461 5.83706
head 6.68353 -1.76856 2.17335
rclavicle 6.36111e-015 1.19271e-014
rhumerus -32.7438 -14.8184 -77.9483
rradius 35.771
rwrist -1.9995
rhand -10.6034 -412.26
rfingers 7.12502
rthumb -164.597 98.3336
lclavicle 6.36111e-015 1.19271e-014
lhumerus -28.2652 3.76961 81.002
lradius 23.068
lwrist -3.96185
lhand -23.4904 -14.3726
lfingers 7.12502
lthumb 2.96946 15.5865
rfemur -19.4328 4.82785 13.6857
rtibia 10.649
rfoot -19.9433 -13.7534
rtoes -8.62196
lfemur -73.2043 -6.23471 -13.6895
ltibia 70.4383
lfoot -13.6682 2.88372
ltoes -48.3212
230
root 16.8322 16.607 22.0013 -158.247 -12.7309 170.693
lowerback -17.7386 -1.16652 -7.34166
upperback 3.62506 0.2224 -1.13164
thorax 14.1507 -0.478548 2.95182
lowerneck -1.9579 -0.442699 -3.10467
upperneck 20.6072 -2.88886 5.71287
head 6.68813 -1.72492 2.11851
rclavicle -4.92986e-014 5.96354e-015
rhumerus -32.5009 -14.8193 -77.9283
rradius 35.6579
rwrist -1.90256
rhand -10.2598 -412.434
rfingers 7.12502
rthumb -164.267 98.1851
lclavicle -4.92986e-014 5.96354e-015
lhumerus -28.0998 3.75793 81.164
lradius 23.3114
lwrist -4.15773
lhand -24.0809 -14.1837
lfingers 7.12502
lthumb 2.39924 15.7826
rfemur -19.5399 4.91269 13.6372
rtibia 10.658
rfoot -20.0385 -13.8007
rtoes -7.75722
lfemur -73.2559 -6.18679 -13.4665
ltibia 69.7908
lfoot -13.4545 2.01631
ltoes -44.7645
231
root 16.8043 16.6042 21.9862 -157.904 -12.6016 170.686
lowerback -18.0475 -1.0642 -7.1434
upperback 3.4633 0.3445 -1.23279
thorax 14.1299 -0.397134 2.763
lowerneck -1.77858 -0.365092 -2.87034
upperneck 20.7612 -2.85193 5.71169
head 6.70204 -1.70527 2.08143
rclavicle -5.96354e-015 2.54444e-014
rhumerus -32.7534 -14.8833 -77.9347
rradius 35.7893
rwrist -1.99369
rhand -10.1492 -412.539
rfingers 7.12502
rthumb -164.16 98.0886
lclavicle -5.96354e-015 2.54444e-014
lhumerus -28.2344 3.66962 81.0272
lradius 23.7551
lwrist -3.89705
lhand -23.4837 -14.2301
lfingers 7.12502
lthumb 2.97594 15.7288
rfemur -19.9681 4.96425 13.4202
rtibia 10.8317
rfoot -20.2694 -13.6647
rtoes -6.41677
lfemur -73.4325 -6.12906 -13.3308
ltibia 69.0371
lfoot -13.1933 1.85353
ltoes -42.7655
